<svg xmlns="http://www.w3.org/2000/svg" width="20" height="19" viewBox="0 0 20 19">
  <metadata><?xpacket begin="﻿" id="W5M0MpCehiHzreSzNTczkc9d"?>
<x:xmpmeta xmlns:x="adobe:ns:meta/" x:xmptk="Adobe XMP Core 5.6-c138 79.159824, 2016/09/14-01:09:01        ">
   <rdf:RDF xmlns:rdf="http://www.w3.org/1999/02/22-rdf-syntax-ns#">
      <rdf:Description rdf:about=""/>
   </rdf:RDF>
</x:xmpmeta>
                                                                                                    
                                                                                                    
                                                                                                    
                                                                                                    
                                                                                                    
                                                                                                    
                                                                                                    
                                                                                                    
                                                                                                    
                                                                                                    
                                                                                                    
                                                                                                    
                                                                                                    
                                                                                                    
                                                                                                    
                                                                                                    
                                                                                                    
                                                                                                    
                                                                                                    
                                                                                                    
                           
<?xpacket end="w"?></metadata>
<defs>
    <style>
      .cls-1 {
        fill: #101010;
        fill-rule: evenodd;
      }
    </style>
  </defs>
  <path id="形狀_665" data-name="形狀 665" class="cls-1" d="M1358.52,435a1.45,1.45,0,0,1-1.04-.363l-17.06-16.323a1.562,1.562,0,0,1,0-2,1.759,1.759,0,0,1,2.08,0l17.06,16.323a1.274,1.274,0,0,1,0,1.9A1.22,1.22,0,0,1,1358.52,435Zm-17.06,0a1.45,1.45,0,0,1-1.04-.363,1.274,1.274,0,0,1,0-1.9l17.06-16.323a1.415,1.415,0,0,1,1.99,0,1.274,1.274,0,0,1,0,1.9l-17.06,16.323A1.128,1.128,0,0,1,1341.46,435Z" transform="translate(-1340 -416)"/>
</svg>
